<?xml version="1.0" encoding="utf-8"?>
<!-- Generator: Adobe Illustrator 23.0.0, SVG Export Plug-In . SVG Version: 6.00 Build 0)  -->
<svg version="1.1" id="Layer_1" xmlns="http://www.w3.org/2000/svg" xmlns:xlink="http://www.w3.org/1999/xlink" x="0px" y="0px"
	 viewBox="0 0 1000 212.8" style="enable-background:new 0 0 1000 212.8;" xml:space="preserve">
<style type="text/css">
	.st0{fill:#FFFFFF;}
</style>
<g>
	<path class="st0" d="M0,115.5c0-3.5,1-6.6,3.1-9.1s4.6-4.6,7.6-6.2s6.2-2.8,9.8-3.6c3.5-0.8,6.8-1.2,9.9-1.2c2.3,0,5.4,0.3,9.3,1
		c3.9,0.7,7.7,1.7,11.4,3.1c3.7,1.4,6.9,3.2,9.7,5.4c2.7,2.2,4.1,4.9,4.1,7.9c0,1.4-0.5,2.6-1.6,3.7c-1,1.1-2.1,1.6-3.2,1.6
		c-2.3,0-4.5-0.8-6.4-2.3s-3.9-3.1-5.9-4.8c-2-1.7-4.3-3.3-6.7-4.8c-2.4-1.5-5.1-2.3-8.2-2.3c-3,0-5.8,1-8.2,2.9
		c-2.5,1.9-3.7,4.5-3.7,7.7c0,5.3,1.9,10.4,5.6,15.5c3.7,5.1,7.8,10.4,12.3,15.9c4.5,5.6,8.5,11.4,12.3,17.6
		c3.7,6.1,5.6,12.9,5.6,20.4c0,3.2-0.7,5.9-2,8.1c-1.3,2.2-3.1,4-5.3,5.4c-2.2,1.4-4.7,2.4-7.5,3.2c-2.8,0.7-5.4,1.1-8,1.1
		c-2.9,0-6.2-0.7-10-2c-3.8-1.3-7.4-3.1-10.8-5.3c-3.4-2.2-6.2-4.8-8.5-7.7s-3.4-6-3.4-9.2c0-1.6,1.1-2.6,3.3-3
		c2.2-0.4,3.8-0.6,4.9-0.6c0.5,0,1.3,0.2,2.4,0.5c1.1,0.3,2.1,0.7,3.2,1.2c1,0.4,2,0.9,2.8,1.4c0.8,0.5,1.1,1.1,1,1.7
		c0.9,1,2.2,2.6,4,4.6c1.8,2,3.5,3.7,5.3,4.9c1.8,1.3,3.3,1.7,4.7,1.4c1.3-0.3,2-2.3,2-5.8c0-6.7-1.8-12.9-5.4-18.6
		c-3.6-5.7-7.6-11.2-11.9-16.6s-8.2-10.8-11.9-16.1C1.8,127.3,0,121.6,0,115.5z M91.4,145.9c0-8,0.9-15.8,2.8-23.4
		s3.4-15.3,4.7-22.9c0.3-2,1.7-3.2,4.1-3.7c2.4-0.5,4.4-0.7,6-0.7c2.9,0,5.1,0.4,6.9,1.3c0.7,0.3,1.3,0.7,1.9,1.2
		c0.6,0.4,0.9,1,0.9,1.7c0,7.4-0.9,14.7-2.7,21.8c-1.8,7.1-2.7,14.6-2.7,22.6c0,2.7,0.2,5.2,0.6,7.6c0.4,2.4,0.8,4.7,1.1,7.1
		l0.8,3.8c0,0.7,0,1.3,0.1,1.8c0.1,0.5,0.2,1.1,0.4,1.8c0,1.6-1.1,2.6-3.3,3.2s-4.1,0.8-5.8,0.8c-2.5,0-4.8-0.5-6.9-1.5
		s-3.8-2.7-5-5.1l-1.8-3.8c-1-2-1.6-4.2-1.6-6.7C92,150.2,91.8,147.9,91.4,145.9z M99.7,67.8v-2.5c0-4.1,1-7.7,3-10.9
		c2-3.2,5.1-4.8,9.1-4.8c0.5,0,1,0,1.5,0.1s1,0.1,1.5,0.1c1,0.2,2.4,0.6,4.1,1.2c1.7,0.6,2.5,1.7,2.5,3v0.3
		c-0.3,0.7-0.6,1.4-0.6,2.1c-0.1,0.7-0.3,1.4-0.6,1.9l0.3-0.3c-1,2.7-1.9,4.8-2.5,6.5c-0.6,1.6-1.4,3-2.1,4c-0.8,1-1.8,1.7-2.9,2.1
		c-1.2,0.4-2.8,0.6-5,0.6c-0.3,0-1,0-1.8-0.1s-1.8-0.3-2.8-0.5c-1-0.3-1.8-0.6-2.5-1C100,69.3,99.7,68.7,99.7,67.8z M142.7,66.6
		c0-1.2,1.3-2.2,3.9-3.1s5.5-1.6,8.8-2.1c3.3-0.6,6.5-1,9.5-1.2c3.1-0.3,5.2-0.5,6.3-0.6c0-2.3,0.1-4.7,0.3-7.1
		c0.2-2.4,0.6-4.5,1.4-6.4c0.8-1.9,2-3.3,3.7-4.5c1.7-1.1,4-1.7,7.1-1.7c2.5,0,4.4,0.3,5.7,0.9c1.3,0.6,2.7,1.9,4.1,3.8
		c0.3,1,0.5,2,0.5,3v4.3c0,0-0.1,1.5-0.3,4.5c3.2-0.3,6.4-0.8,9.5-1.2c3.2-0.5,6.3-0.7,9.5-0.7c2.3,0,3.9,0,4.8,0.1s1.7,1.1,2.6,3.1
		c0.7,2-0.2,3.5-2.5,4.5c-2.4,1-5.2,1.8-8.6,2.3c-3.3,0.5-6.6,0.9-9.9,1.2c-3.3,0.3-5.3,0.4-6,0.4c-1,14.9-2.1,29.6-3.2,44.2
		c-1.1,14.6-1.6,29.4-1.6,44.5c0,6.7,0.2,13.7,0.6,20.9c0.4,7.2,1.6,14,3.6,20.4c0.5,2,1.4,3.8,2.6,5.6s1.8,3.6,1.8,5.6
		c0,1.2-0.5,2.2-1.4,2.9c-1,0.7-2.1,1.3-3.4,1.8c-1.3,0.5-2.7,0.8-4,0.8c-1.3,0.1-2.4,0.1-3.3,0.1c-5.4,0-9.6-2-12.4-6.1
		s-4.9-8.9-6.2-14.6c-1.3-5.7-1.9-11.5-2-17.4c-0.1-6-0.1-10.8-0.1-14.5c0-7.6,0.2-15.4,0.5-23.3c0.3-8,0.7-15.8,1.1-23.6
		c0.4-7.8,1-15.4,1.8-22.8c0.8-7.4,1.7-14.3,2.7-20.7c-3,0.3-6,0.7-8.9,1.2c-2.9,0.4-5.9,0.6-8.9,0.6c-0.7,0-1.6,0-2.8-0.1
		c-1.2-0.1-2.3-0.3-3.3-0.6c-1-0.3-1.9-0.8-2.7-1.4C143,68.6,142.7,67.8,142.7,66.6z M241.8,149c0-5.9,0.8-11.5,2.4-17
		s4-10.3,7.2-14.6c3.2-4.3,7.2-7.7,12-10.2s10.4-3.8,16.7-3.8c3.9,0,8.2,0.6,12.9,1.8c4.7,1.2,9.1,2.9,13.3,5.2s7.6,5.2,10.4,8.8
		s4.1,7.6,4.1,12.2c0,2.2-0.4,3.8-1.1,4.9c-0.7,1.1-2.2,1.7-4.5,1.7l-1.4-0.3c2.5,6.7,4.7,13.7,6.5,20.7c1.8,7.1,3.6,14.2,5.3,21.3
		c0.7,1.4,1.2,2.6,1.6,3.7c0.3,1.1,0.5,2.1,0.5,3.2c0,1.4-0.4,2.5-1.2,3.4c-0.8,0.9-1.8,1.6-3,2c-1.3,0.4-2.5,0.7-3.9,0.9
		c-1.3,0.2-2.5,0.3-3.6,0.3c-3.7,0-6.5-0.6-8.4-1.9c-1.9-1.3-3.2-3.1-4-5.3c-0.8-2.2-1.3-4.8-1.5-7.6c-0.2-2.8-0.5-5.6-1-8.5
		c-1,3.4-2.4,6.7-4.1,9.9c-1.7,3.2-3.7,6.1-6,8.6c-2.3,2.6-5,4.6-8.1,6.1c-3.1,1.5-6.6,2.3-10.5,2.3c-5.7,0-10.5-1.6-14.4-4.9
		c-3.9-3.3-7-7.3-9.4-12.1c-2.4-4.8-4.1-9.9-5.2-15.4C242.4,158.7,241.8,153.6,241.8,149z M260.2,147.2c0,3.2,0.2,6.6,0.6,10.1
		c0.4,3.5,1.1,7,2.1,10.5c1,3.5,2.3,6.7,3.8,9.8c1.6,3.1,3.5,5.8,5.8,8.1c4.2-4.6,7.4-10.2,9.4-16.7c2-6.6,3.8-12.9,5.4-19
		c1.6-6.1,3.4-11.3,5.4-15.7c2-4.4,5.2-6.5,9.4-6.5c2.7,0,4.9,0.5,6.7,1.4c-0.9-2.2-2.3-4.3-4.3-6.3c-2-2-4.2-3.9-6.7-5.6
		s-5-3.1-7.6-4.1c-2.6-1.1-5.1-1.6-7.5-1.6c-0.7,0-1.5,0.1-2.4,0.3s-1.6,0.2-2.1,0.1c-3.5,1-6.5,2.8-8.8,5.4s-4.1,5.6-5.6,9
		s-2.4,7-3,10.6S260.2,144,260.2,147.2z M354.3,149.6v-3.8c0-3.1,0.1-6.1,0.3-8.8c0.2-3.9,0.3-7.1,0.3-9.6c0-1.4,0.1-3,0.3-4.7
		c0.2-1.8,0.6-3.2,1.3-4.2c0.9-0.9,1.9-1.8,3-2.7c1.2-0.9,2.4-1.4,3.8-1.4c4.4,0,7.9,0.5,10.4,1.5c2.5,1,3.8,3,4,6.2l0.5,4
		c1.6-3.7,3.6-8.3,6.2-13.8c2.6-5.5,5.6-10.7,9-15.7c3.4-5,7.3-9.2,11.5-12.7s8.8-5.3,13.5-5.3c4.4,0,8,2.1,10.9,6.2
		c2.9,4.1,5.1,9.4,6.8,15.9c1.7,6.4,2.9,13.6,3.6,21.5c0.7,7.9,1.2,15.7,1.4,23.3c0.3,7.6,0.4,14.5,0.5,20.8
		c0.1,6.3,0.4,11,0.9,14.2c0.3,2.7,0.9,5.5,1.8,8.5c0.8,3,1.2,5.7,1.2,8.2c0,0.7-0.5,1.4-1.5,2s-2.1,1.2-3.2,1.6s-2.3,0.8-3.4,1
		s-2,0.4-2.5,0.4c-3.4,0-5.8-2.5-7.2-7.6c-1.4-5.1-2.3-11.4-2.7-19c-0.3-7.6-0.5-15.8-0.5-24.7c0-8.9-0.3-17.1-0.9-24.7
		s-1.8-13.9-3.7-19c-1.9-5.1-4.8-7.7-8.9-7.8c-3.7,0-7.6,2.4-11.5,7.2s-7.4,11.2-10.2,19.1c-2.8,8-4.7,17-5.7,27.1
		c-0.3,3.2-0.5,6.4-0.5,9.6c0,7,0.7,14,2.2,21c0.2,1.2-0.3,2.1-1.5,2.7c-1.2,0.6-2.6,1.1-4.3,1.4c-1.7,0.3-3.5,0.6-5.3,0.6
		c-1.8,0.1-3.1,0.1-4.1,0.1c-3.4,0-6.1-1.2-8.1-3.6s-3.6-5.4-4.7-9.1s-1.9-7.9-2.3-12.5S354.4,154.1,354.3,149.6z M472.1,115.5
		c0-3.5,1-6.6,3.1-9.1c2.1-2.6,4.6-4.6,7.6-6.2c3-1.6,6.2-2.8,9.8-3.6c3.5-0.8,6.8-1.2,9.9-1.2c2.3,0,5.4,0.3,9.3,1
		c3.9,0.7,7.7,1.7,11.4,3.1c3.7,1.4,6.9,3.2,9.7,5.4c2.7,2.2,4.1,4.9,4.1,7.9c0,1.4-0.5,2.6-1.6,3.7c-1,1.1-2.1,1.6-3.2,1.6
		c-2.3,0-4.5-0.8-6.4-2.3s-3.9-3.1-5.9-4.8c-2-1.7-4.3-3.3-6.7-4.8c-2.4-1.5-5.1-2.3-8.2-2.3s-5.8,1-8.2,2.9
		c-2.5,1.9-3.7,4.5-3.7,7.7c0,5.3,1.9,10.4,5.6,15.5c3.7,5.1,7.8,10.4,12.3,15.9c4.5,5.6,8.5,11.4,12.3,17.6
		c3.7,6.1,5.6,12.9,5.6,20.4c0,3.2-0.7,5.9-2,8.1c-1.3,2.2-3.1,4-5.3,5.4s-4.7,2.4-7.5,3.2s-5.4,1.1-8,1.1c-2.9,0-6.2-0.7-10-2
		c-3.8-1.3-7.4-3.1-10.8-5.3c-3.4-2.2-6.2-4.8-8.5-7.7c-2.3-2.9-3.4-6-3.4-9.2c0-1.6,1.1-2.6,3.3-3c2.2-0.4,3.8-0.6,4.9-0.6
		c0.5,0,1.3,0.2,2.4,0.5c1.1,0.3,2.1,0.7,3.2,1.2c1,0.4,2,0.9,2.8,1.4c0.8,0.5,1.1,1.1,1,1.7c0.9,1,2.2,2.6,4,4.6
		c1.8,2,3.5,3.7,5.3,4.9c1.8,1.3,3.3,1.7,4.7,1.4s2-2.3,2-5.8c0-6.7-1.8-12.9-5.4-18.6c-3.6-5.7-7.6-11.2-11.9-16.6
		c-4.3-5.4-8.2-10.8-11.9-16.1C474,127.3,472.1,121.6,472.1,115.5z M563.5,163.1v-12.2c0-4.4,0.1-10.7,0.3-18.7
		c0.2-8.1,0.5-16.9,0.8-26.6c0.3-9.6,0.8-19.7,1.4-30.1c0.6-10.5,1.3-20.3,2.1-29.6c0.8-9.3,1.7-17.6,2.8-25s2.3-12.8,3.7-16.3
		c0.9-2,2.3-3.2,4.3-3.8c2-0.5,3.9-0.8,5.8-0.8c3,0,5.7,0.7,8,2s3.4,3.8,3.4,7.3l-2.3,2.6c-3,20-5,40-5.8,60.2s-1.5,40.3-1.8,60.4
		c2.2-3.4,4.6-6.7,7.3-9.9c2.7-3.2,5.7-6.1,9.1-8.6c3.3-2.5,6.9-4.5,10.8-6c3.8-1.5,8.1-2.3,12.6-2.3c5.9,0,10.7,1.8,14.6,5.3
		c3.8,3.5,7,8.1,9.5,13.8c2.5,5.7,4.4,12,5.6,19s2.1,14,2.8,21c0.6,7,1.1,13.6,1.4,19.9c0.3,6.3,0.6,11.5,1.2,15.6
		c-1.6,2.2-4.1,3.4-7.3,3.4h-0.4c-1.4,0-2.9-0.2-4.5-0.5c-1.6-0.3-2.7-1.2-3.2-2.6l0.3,0.3c-1.2-2.7-2-6.5-2.5-11.6
		c-0.4-5.1-0.8-10.6-1-16.7c-0.3-6.1-0.7-12.3-1.4-18.7c-0.6-6.4-1.6-12.2-2.9-17.4c-1.3-5.2-3.2-9.5-5.7-12.8
		c-2.5-3.4-5.9-5.1-10.1-5.3h-0.8c-5.1,0-9.4,1.6-12.8,4.7c-3.6,3.3-6.6,7.6-8.8,13c-2.2,5.4-4,11.3-5.2,17.9
		c-1.2,6.6-2.1,12.9-2.8,19c-0.6,6.1-1.1,11.6-1.5,16.6c-0.3,5-0.8,8.6-1.3,11c-0.5,2-2.1,3.3-4.6,4s-4.7,1-6.5,1
		c-4.2,0-7.7-1.2-10.4-3.6c-2-4.8-3.2-10.7-3.5-17.8C563.7,176.8,563.5,169.9,563.5,163.1z M682.2,137.6c0-1.7,0.2-4,0.6-6.9
		c0.4-2.9,0.8-5.7,1.4-8.5c0.5-2.8,1.1-5.4,1.8-7.8c0.7-2.4,1.5-4,2.5-4.7c0.7-0.7,1.9-1.4,3.6-2.1c1.7-0.7,3.5-1.2,5.3-1.5
		c1.9-0.3,3.6-0.2,5.2,0.4c1.6,0.6,2.6,1.7,2.9,3.4c-1.2,1.6-2.3,4.2-3.3,8s-1.8,7.9-2.3,12.5c-0.4,3.9-0.6,7.9-0.6,12.1v2.2
		c0.1,4.8,0.5,9.3,1.3,13.4s2,7.4,3.6,10s3.8,4,6.7,4c6.1,0,11.6-2.8,16.6-8.4c5-5.6,9.5-12.4,13.4-20.4c3.9-8,7.3-16.6,10.2-25.6
		c2.9-9,5.4-16.9,7.5-23.7c0.5-2,1.8-3.3,3.7-4c1.9-0.7,4-0.9,6.3-0.7c2.2,0.2,4.3,0.8,6,1.6s2.8,1.9,3.2,3.1
		c-1.7,14.5-3.1,29-4.1,43.6c-1,14.5-1.5,29.1-1.5,43.8c0,2.9,0.1,5.5,0.4,7.8c0.3,2.4,0.1,4.4-0.4,6.1c-0.5,1.7-1.7,3-3.4,4
		c-1.8,1-4.6,1.5-8.5,1.5c-0.9,0-2-0.1-3.3-0.3c-1.3-0.2-2.7-0.5-4.1-0.8c-1.4-0.4-2.6-1-3.6-1.8c-1-0.8-1.5-1.7-1.5-2.7
		c0-6.4,0.2-13,0.7-19.7s1.1-13.3,2-19.6c-2.3,3.4-4.9,6.7-7.7,10c-2.8,3.3-5.9,6.3-9.3,9c-3.4,2.7-7,4.8-10.9,6.4
		c-3.9,1.6-8.1,2.4-12.6,2.4c-6.4,0-11.4-1.5-15.1-4.5s-6.4-6.8-8.3-11.3s-3-9.5-3.5-14.8C682.5,147.8,682.2,142.6,682.2,137.6z"/>
	<path class="st0" d="M813.8,114.7c0-0.9,0.1-1.7,0.2-2.6c0.1-0.9,0.2-1.8,0.2-2.6v-0.8c0-1.1,0.4-1.7,1.3-2
		c0.9-0.3,1.8-0.4,2.7-0.4c1.1,0,2.1,0.2,3.1,0.7c1,0.4,1.5,1.3,1.5,2.6c0.2,0.6,0.3,1.4,0.3,2.2v2.4c0,1.2-0.4,2-1.3,2.5
		c-0.8,0.5-2,0.7-3.4,0.7c-1,0-2-0.2-3-0.5C814.3,116.5,813.8,115.8,813.8,114.7z M832.7,65.4c0-0.5,0.5-0.9,1.6-1.2
		c1-0.3,2.2-0.6,3.5-0.9s2.6-0.4,3.8-0.5c1.2-0.1,2.1-0.2,2.5-0.3c0-0.9,0-1.9,0.1-2.8c0.1-1,0.3-1.8,0.6-2.5
		c0.3-0.7,0.8-1.3,1.5-1.8c0.7-0.4,1.6-0.7,2.8-0.7c1,0,1.8,0.1,2.3,0.4c0.5,0.2,1.1,0.7,1.7,1.5c0.1,0.4,0.2,0.8,0.2,1.2v1.7
		c0,0,0,0.6-0.1,1.8c1.3-0.1,2.6-0.3,3.8-0.5c1.3-0.2,2.5-0.3,3.8-0.3c0.9,0,1.6,0,1.9,0.1c0.3,0,0.7,0.4,1,1.2
		c0.3,0.8-0.1,1.4-1,1.8c-1,0.4-2.1,0.7-3.4,0.9c-1.3,0.2-2.7,0.4-4,0.5c-1.3,0.1-2.1,0.2-2.4,0.2c-0.4,5.9-0.8,11.8-1.3,17.7
		c-0.4,5.8-0.6,11.8-0.6,17.8c0,2.7,0.1,5.5,0.3,8.4c0.2,2.9,0.7,5.6,1.5,8.1c0.2,0.8,0.6,1.5,1,2.2c0.5,0.7,0.7,1.4,0.7,2.2
		c0,0.5-0.2,0.9-0.6,1.1c-0.4,0.3-0.8,0.5-1.4,0.7c-0.5,0.2-1.1,0.3-1.6,0.3c-0.5,0-1,0.1-1.3,0.1c-2.2,0-3.8-0.8-5-2.4
		s-2-3.6-2.5-5.8c-0.5-2.3-0.8-4.6-0.8-7c0-2.4-0.1-4.3-0.1-5.8c0-3,0.1-6.2,0.2-9.3c0.1-3.2,0.3-6.3,0.4-9.4
		c0.2-3.1,0.4-6.2,0.7-9.1c0.3-3,0.7-5.7,1.1-8.3c-1.2,0.1-2.4,0.3-3.6,0.5c-1.2,0.2-2.3,0.3-3.6,0.3c-0.3,0-0.6,0-1.1-0.1
		c-0.5,0-0.9-0.1-1.3-0.3c-0.4-0.1-0.8-0.3-1.1-0.6C832.9,66.2,832.7,65.9,832.7,65.4z M872.4,100.5c0-2.4,0.3-5.3,0.8-8.6
		c0.5-3.3,1.4-6.4,2.7-9.3c1.3-2.9,3-5.4,5.1-7.5c2.1-2.1,4.7-3.1,7.9-3.1c3,0,5.2,0.9,6.7,2.6c1.5,1.7,2.2,4,2.2,6.9
		c0,1.9-0.4,4-1.1,6.2s-1.7,4.4-3,6.4c-1.3,2-2.9,3.7-4.7,5.1c-1.8,1.3-3.8,2-6,2l-1.3-0.1c0,0.9,0.1,2.2,0.4,3.8s0.7,3.1,1.2,4.7
		c0.5,1.6,1.2,2.9,2.1,4.1c0.8,1.2,1.9,1.8,3.1,1.8c1.8,0,3.5-0.7,5.1-2.1c1.6-1.4,3.2-3,4.6-4.7c1.5-1.7,2.8-3.3,4-4.7
		c1.2-1.4,2.4-2.1,3.4-2.1c0.6,0,1.1,0.1,1.7,0.3c0.6,0.2,0.9,0.7,1,1.5c0,0.5-0.1,0.9-0.4,1.2c-0.3,0.3-0.5,0.7-0.7,1
		c-1.1,1.8-2.2,3.6-3.5,5.2c-1.3,1.7-2.7,3.2-4.3,4.5c-1.6,1.3-3.3,2.4-5.2,3.2c-1.9,0.8-4,1.2-6.2,1.2c-3,0-5.4-0.5-7.4-1.6
		c-2-1.1-3.6-2.5-4.8-4.3c-1.2-1.8-2.1-3.8-2.6-6.2C872.7,105.5,872.4,103,872.4,100.5z M881.7,96.5l1.5,1.3
		c0.7,0.6,1.4,0.8,2.1,0.4c0.7-0.3,1.3-1,1.9-1.9c0.6-0.9,1.1-2,1.5-3.4c0.5-1.3,0.9-2.7,1.2-4.1c0.4-1.4,0.6-2.8,0.8-4.1
		s0.3-2.5,0.3-3.4v-1.8c0,0-0.1-0.6-0.2-1.9c-0.1-1.2-0.3-1.7-0.5-1.5c-0.3,0.3-0.7,0-1.2-0.8c-0.2,0-0.3-0.1-0.5-0.1
		c-1.2,0-2.2,0.7-3,2.2c-0.9,1.7-1.6,3.7-2.2,6s-1,4.8-1.2,7.3C881.9,93.4,881.7,95.3,881.7,96.5z M915.7,97.3c0-2.5,0.3-5,1-7.5
		c0.6-2.5,1.6-4.8,3-6.7c1.3-2,3.1-3.6,5.2-4.8c2.1-1.2,4.6-1.9,7.4-1.9c1.2,0,2.5,0.1,4,0.4c1.5,0.3,2.8,0.8,4,1.4
		c1.2,0.6,2.3,1.5,3.1,2.5c0.8,1,1.3,2.3,1.3,3.8c0,0.9-0.2,1.6-0.7,1.9c-0.5,0.3-1.1,0.5-1.9,0.5l-0.4-0.5c0,0-0.3-0.4-1-1.3
		c-0.7-0.9-1.1-1.5-1.4-1.7c-0.2-0.3-0.7-0.8-1.4-1.5c-1.4-1.4-2.7-2.2-4-2.3h-0.4c-1,0-2,0.3-2.9,0.9c-1,0.8-1.9,1.8-2.7,3.2
		c-0.8,1.4-1.4,2.9-1.9,4.4c-0.5,1.6-0.9,3.1-1.2,4.7c-0.3,1.6-0.4,2.9-0.4,3.9c0,1.4,0.2,3,0.5,4.8c0.3,1.8,0.9,3.5,1.7,5.2
		c0.8,1.6,1.8,3,3,4.1c1.2,1.1,2.7,1.7,4.6,1.7c1.7,0,3.2-0.4,4.6-1.2c1.4-0.8,2.7-1.8,4-2.8c1.3-1,2.5-1.9,3.7-2.7
		c1.2-0.8,2.5-1.2,3.7-1.2c0.6,0,1.1,0.1,1.7,0.2c0.6,0.1,0.9,0.5,0.9,1.1v0.3c-0.6,1.6-1.7,3.1-3.2,4.3s-3.2,2.3-5,3.2
		c-1.8,0.9-3.8,1.6-5.8,2c-2,0.4-3.8,0.7-5.3,0.7c-2.9,0-5.5-0.5-7.6-1.4c-2.2-1-4-2.3-5.5-3.9c-1.5-1.7-2.6-3.7-3.3-6
		C916.1,102.6,915.7,100.1,915.7,97.3z M961,104v-4.9c0-1.8,0-4.3,0.1-7.5c0.1-3.2,0.2-6.8,0.3-10.6c0.1-3.9,0.3-7.9,0.6-12.1
		c0.2-4.2,0.5-8.1,0.8-11.9c0.3-3.7,0.7-7,1.1-10c0.4-2.9,0.9-5.1,1.5-6.5c0.3-0.8,0.9-1.3,1.7-1.5c0.8-0.2,1.6-0.3,2.3-0.3
		c1.2,0,2.3,0.3,3.2,0.8s1.4,1.5,1.4,2.9l-0.9,1c-1.2,8-2,16-2.3,24.1c-0.3,8.1-0.6,16.1-0.7,24.2c0.9-1.3,1.8-2.7,2.9-4
		c1.1-1.3,2.3-2.4,3.6-3.4c1.3-1,2.8-1.8,4.3-2.4c1.5-0.6,3.2-0.9,5.1-0.9c2.4,0,4.3,0.7,5.8,2.1c1.5,1.4,2.8,3.3,3.8,5.5
		c1,2.3,1.7,4.8,2.2,7.6s0.9,5.6,1.1,8.4s0.4,5.5,0.5,8c0.1,2.5,0.3,4.6,0.5,6.2c-0.7,0.9-1.6,1.3-2.9,1.3h-0.2
		c-0.6,0-1.2-0.1-1.8-0.2c-0.7-0.1-1.1-0.5-1.3-1l0.1,0.1c-0.5-1.1-0.8-2.6-1-4.6c-0.2-2-0.3-4.3-0.4-6.7c-0.1-2.4-0.3-4.9-0.5-7.5
		c-0.3-2.6-0.6-4.9-1.2-6.9c-0.5-2.1-1.3-3.8-2.3-5.1c-1-1.3-2.4-2.1-4-2.1h-0.3c-2,0-3.8,0.6-5.1,1.9c-1.5,1.3-2.6,3-3.5,5.2
		c-0.9,2.1-1.6,4.5-2.1,7.2c-0.5,2.6-0.9,5.2-1.1,7.6s-0.5,4.7-0.6,6.6c-0.1,2-0.3,3.4-0.5,4.4c-0.2,0.8-0.8,1.3-1.8,1.6
		c-1,0.3-1.9,0.4-2.6,0.4c-1.7,0-3.1-0.5-4.1-1.5c-0.8-1.9-1.3-4.3-1.4-7.1C961.1,109.5,961,106.7,961,104z"/>
</g>
</svg>
