<?xml version="1.0" encoding="utf-8"?>
<!-- Generator: Adobe Illustrator 23.0.0, SVG Export Plug-In . SVG Version: 6.00 Build 0)  -->
<svg version="1.1" id="Layer_1" xmlns="http://www.w3.org/2000/svg" xmlns:xlink="http://www.w3.org/1999/xlink" x="0px" y="0px"
	 viewBox="0 0 1000 238.3" style="enable-background:new 0 0 1000 238.3;" xml:space="preserve">
<style type="text/css">
	.st0{fill:#FE8D01;}
	.st1{fill:#FE8D02;}
	.st2{fill:#FE8E02;}
	.st3{fill:#FE8E03;}
	.st4{fill:#FE8E04;}
	.st5{fill:#FE8F05;}
	.st6{fill:#FE9D25;}
	.st7{fill:#0410FE;}
	.st8{fill:#19AC3F;}
</style>
<g>
	<path class="st0" d="M236.8,122.4L236.8,122.4L236.8,122.4C236.9,122.4,236.9,122.4,236.8,122.4z M236.8,122.4L236.8,122.4
		L236.8,122.4C236.9,122.4,236.9,122.4,236.8,122.4z"/>
	<path class="st0" d="M290.1,151.4c-3-18.5-2.4-37.1-2.8-55.7c-0.2-11.9-1.5-23.7-3.3-35.4c-2.5-16.4-9.5-19.7-24.8-12.9
		c-15.9,7.1-25.8,19.7-32.3,35.3c-7,16.9-9.1,34.8-10.5,52.9c1.1,6.6-4,15,6.2,18.8c9.7,3.6,14.6-3.3,20.1-8.8c2.8-2.8,5-6.1,7-9.5
		c3.2-5.3,6-10.9,9.1-16.2c1.9-3.2,2.4-9.4,6.3-8.9c4.7,0.6,2,6.4,2.5,9.8c1.7,11.1,2.5,22.4,4.6,33.5c1.1,5.9,5.1,10.5,12,9.2
		C291.3,162.2,290.9,156.4,290.1,151.4z M260.4,75.9c-2.4,16.5-8.1,31.5-20.3,43.5l-3.2,3l-0.1,0.1v-0.3c0.1-1.1,0.2-2.1,0.3-3.2
		l0.3-3.1c1.3-16,4.7-31.2,15.7-43.7c1.8-2.1,3.7-5.7,6.4-4.3C261.8,69.1,260.7,73.2,260.4,75.9z"/>
	<path class="st1" d="M548.4,126c-0.8,9.6-1.7,19.1-2.4,28.7c-0.3,4.2-2.4,5.9-6.5,5.6c-3.9-0.3-6.6-2-6.4-6.1
		c0.3-5.6,1.2-11.2,1.8-16.9c1.2-10.8,0.1-21.5-2.5-32c-1-3.8-2.3-8-6.6-9.1c-4.6-1.1-7.2,2.7-9.6,5.8
		c-9.9,13.2-12.3,28.8-14.3,44.6c-0.8,6.4,4.4,16.9-7.8,16.8c-10.7-0.1-10.9-9.7-11.4-17.7c-2.5-41.8-5-83.6-7.4-125.4
		c-0.3-6-2.3-13.6,6.9-14.6c9.3-1,10.8,6.4,11.5,13.4c2.5,24.2-0.1,48.7,3.9,72.8c0.4,2.5-1,6.5,2.1,7.2c3.1,0.7,3.6-3.6,5.3-5.7
		c7.4-9.1,13.8-22.6,27.6-18.2c13,4.1,12.6,18.5,14,30.3C547.6,112.5,548.2,119.2,548.4,126z"/>
	<path class="st2" d="M302.6,135.8c1.6-20.9,1.4-41.7,0.1-62.6c-0.3-5.6-2.1-14.4,6.9-14.6c9.3-0.2,11.5,7.5,11.2,15.7
		c-0.2,5.4-2.1,11,1.2,16.2c5.2-3.4,5.3-9.4,7.5-14.4c1.4-3.1,2.5-6.4,4.3-9.2c6.1-9.1,14.1-9.1,20.1,0.1c4.7,7.3,5.8,15.9,7.6,24.1
		c4.3,19.9,7.6,40,15.5,58.9c2.1,5,4.1,10.2-2.1,13.1c-5.4,2.5-9.9-1-13.1-5.3c-6-8-6.9-17.8-9.4-27c-2.3-8.7-3.6-17.7-5.8-26.4
		c-0.6-2.4-0.5-6.3-3.9-6.6c-3.6-0.3-4.2,3.2-5,5.8c-4.3,12.8-8.6,25.7-12.8,38.6c-1.4,4.3-2.5,8.7-4.1,12.9
		c-2,5.1-5.1,9.2-11.4,7.2c-5.3-1.7-8.7-5-7.9-11.3C302.1,145.9,302.3,140.8,302.6,135.8z"/>
	<path class="st3" d="M168.6,150.7c-0.3,6.4,0.3,11.7-5.7,12.6c-5.7,0.9-9.7-2.1-11.7-7.6c-3.3-9.3-2.4-19-3.3-28.6
		c-0.5-5.1-1.3-10.1-1.9-15.1c-0.6-5.3-0.9-10.2-8.9-7c-5,2-10.7,0.6-12.7-5.2c-2.2-6.5,3.2-9.6,8-10.8c11.7-2.8,13-10.8,11.8-20.6
		c-2-16.3-2.9-32.7-2.9-49.1c0-5.5-2.1-12.8,5.8-13.6C156,4.9,158,12,158.4,19.4c0.8,14.1,1.9,28.2,2.6,42.3
		c0.9,18,1.4,13.5,15.5,9.3c7-2.1,13.6-5.6,20.5-8.1c5.5-2,10.3-0.7,12.3,5.3c1.8,5.5-1.7,8.4-6.4,10.1c-9,3.4-17.8,7.2-27,10
		c-8.8,2.7-12.6,7.2-12.3,17C164.2,121.4,165.2,137.1,168.6,150.7z"/>
	<path class="st0" d="M617.8,122.7c0,13,0,26,0,38.9c0,4.7-0.2,9.8-5.8,10.7c-6,0.9-9.2-3.4-10.5-8.8c-0.7-2.7-0.8-5.6-1.2-8.4
		c-0.4-2.1-0.5-5.7-1.5-6c-2.4-0.7-3.4,2.1-4.7,3.9c-11.5,15.5-25.6,14.1-34.7-3.1c-3.9-7.3-4.7-15.3-4.8-23
		c-0.3-15.2,1.1-30.4,1.5-45.6c0.1-5.5,1.3-10.2,6.7-12.5c3.8-1.6,7.8-1.4,11.1,1.5c5,4.4,4.1,9.6,2.4,15.4
		c-5.1,16.8-8.6,33.9-3.6,51.5c1.1,3.8,1.5,8.2,6.5,8.6c3.8,0.3,6-3,7.9-5.6c10.4-14.5,11-31.6,12.7-48.4c0.6-5.6-0.1-11.3,0.2-16.9
		c0.2-4.2-1.2-9.8,5.9-9.8c5.5,0,7.9,3.8,8.7,8.6c0.7,4.4,1.4,8.9,1.5,13.4c0.2,11.8,0.1,23.7,0.1,35.5
		C616.6,122.8,617.2,122.7,617.8,122.7z"/>
	<path class="st4" d="M29.6,112.5c9.7-2,18.5-4.1,27.3-5.6c7.4-1.3,15.4-2,20.1,5c4.7,6.9-0.8,13-4.6,18.3
		c-6.9,9.7-14.6,18.6-21.6,28.2c-4,5.5-8.6,7.7-14.2,3.4c-5.7-4.4-1.8-8.7,1.2-13c5.2-7.5,17.2-13.5,13.6-22.8
		c-1.6-4.1-15.3,1.8-23.6,2.8c-2.2,0.3-4.5,0.4-6.8,0.1c-7.8-1-16.7-1.4-20.2-9.9c-3.3-8.1,3.5-13.5,8.4-18.7
		c8.9-9.5,19.4-17.2,30.3-24.3c6.3-4.1,13.6-5.6,20.9-6c5.2-0.3,10.8,1.3,11.2,7.7c0.4,6.5-5.3,6.1-9.7,6.4
		c-15.5,1.1-25.3,11.3-35.1,21.6c-1.5,1.6-3.8,3.8-2.6,5.7C25,112.6,28.3,112.2,29.6,112.5z"/>
	<path class="st3" d="M417.1,112.3c10.5-2.2,19.8-4.4,29.3-5.9c6.2-1,13.1-0.9,17,4.9c4,6,0.8,12-3,17.2
		c-7.8,10.4-15.8,20.6-23.7,30.9c-3.7,4.9-8.2,6.1-13.1,2.3c-5.8-4.5-2.1-8.8,0.9-13.1c5.3-7.6,17.9-13.7,14.1-22.7
		c-2-4.7-16.2,2.5-25.1,2.9c-3.9,0.2-7.9-0.1-11.7-1c-16.9-3.8-19.6-11.7-8.3-24.6c9.4-10.7,20.6-19.4,32.4-27.1
		c6.8-4.4,14.6-6.2,22.6-6.2c4.4,0,9.3,1.3,9.5,7.4c0.2,5.6-4,6.2-8,6.4c-15.4,0.9-25.9,10.2-35.7,20.7c-1.7,1.8-4.7,4.2-2.5,6.9
		C412.7,112.7,415.9,112.2,417.1,112.3z"/>
	<path class="st5" d="M89.6,73.7c-2.2-9.1-1.5-14.1,5.3-14.9c6.5-0.8,11.1,2.8,12,9.3c1.4,10.6,2.6,21.3,3.1,32
		c0.7,17,1.6,33.8,5.6,50.4c1.4,6,2.2,12-5.8,12.8c-7.2,0.8-11.5-3-12.2-10.8C94.8,125.2,92,97.7,89.6,73.7z"/>
	<path class="st6" d="M103.5,5.9c-0.7,5-3.4,7.1-6.9,6.4c-4.4-0.7-8.7-2.8-9.3-7.9c-0.5-4.6,3.4-4.8,6.7-4.8
		C98.9-0.3,101.9,2.4,103.5,5.9z"/>
	<path class="st7" d="M740.1,173.2c0,6.2-5,11.1-11.1,11.1c-5.8,0-10.6-4.4-11.1-10l-15.6-1.5c-1.2,7.4-6,13.7-12.6,16.8l8.9,19.8
		c1.5-0.5,3-0.8,4.7-0.8c8.3,0,15,6.7,15,15c0,8.3-6.7,15-15,15s-15-6.7-15-15c0-5.2,2.6-9.7,6.6-12.4l-9-20.2
		c-1.9,0.6-3.9,0.8-6,0.8c-6.7,0-12.8-2.9-16.9-7.6l-22.3,12.9c0.3,0.8,0.5,1.8,0.5,2.8c0,4.2-3.5,7.7-7.7,7.7
		c-4.2,0-7.7-3.5-7.7-7.7c0-4.2,3.5-7.7,7.7-7.7c1.8,0,3.4,0.6,4.7,1.6l22.3-12.9c-2.1-3.5-3.4-7.5-3.4-11.9
		c0-6.4,2.6-12.1,6.8-16.2L647.5,128c-2,1.1-4.4,1.7-6.8,1.7c-8.3,0-15-6.7-15-15s6.7-15,15-15s15,6.7,15,15c0,4.3-1.8,8.2-4.8,10.9
		l16.1,24.6c3.6-2.5,8-3.9,12.7-3.9c4.7,0,9.1,1.4,12.7,3.9l12.6-15.1c-1.9-2-3.1-4.7-3.1-7.7c0-6.2,5-11.2,11.2-11.2
		c6.2,0,11.2,5,11.2,11.2c0,6.2-5,11.2-11.2,11.2c-1.7,0-3.3-0.4-4.7-1.1l-12.8,15.4c4.1,4,6.8,9.7,6.8,15.9l15.7,1.5
		c1.3-4.7,5.6-8.2,10.7-8.2C735.1,162.1,740.1,167.1,740.1,173.2z"/>
	<g>
		<polygon class="st8" points="778.1,84.4 778.1,97.8 751.5,97.8 751.5,145 738.1,145 738.1,97.8 717.5,97.8 717.5,84.4 738.1,84.4 
			738.1,63.7 751.5,63.7 751.5,84.4 		"/>
		<rect x="934" y="56.8" class="st8" width="13.4" height="88.2"/>
		<path class="st8" d="M879.8,131.6H920V145h-45.6c-7.4,0-13.4-6-13.4-13.4V97.8c0-7.4,6-13.4,13.4-13.4H920v13.4h-40.2
			c-3,0-5.4,2.4-5.4,5.4v23C874.4,129.2,876.8,131.6,879.8,131.6z"/>
		<path class="st8" d="M1000,97.8V145h-13.4v-41.9c0-3-2.4-5.4-5.4-5.4h-27.4V84.4h32.7C994,84.4,1000,90.4,1000,97.8z"/>
		<path class="st8" d="M836.9,106.5v-5.4c0-1.8-1.5-3.3-3.3-3.3h-27.2c-3,0-5.4,2.4-5.4,5.4v23.1c0,3,2.4,5.4,5.4,5.4h40.2V145
			h-45.6c-7.4,0-13.4-6-13.4-13.4V97.8c0-7.4,6-13.4,13.4-13.4h35.8c7.4,0,13.4,6,13.4,13.4v12c0,7.2-5.6,13-12.7,13.3h-32.3v-13.3
			h28.4C835.5,109.8,836.9,108.3,836.9,106.5z"/>
		<path class="st8" d="M837.6,123.1c-0.2,0-0.4,0-0.7,0s-0.5,0-0.7,0H837.6z"/>
	</g>
</g>
</svg>
