<svg xmlns="http://www.w3.org/2000/svg" width="217" height="156" viewBox="0 0 217 156" fill="none"><path d="M57.1111 83.3551C54.9292 83.6388 54.7939 83.8123 54.7939 85.8782V88.7822C54.7939 89.976 54.8277 91.1317 55.0095 92.0715C52.8149 92.5795 50.0029 93.3288 47.0725 93.3288C39.0974 93.3288 34.2641 88.3928 34.2641 81.4375C34.2641 74.0419 40.3237 69.7197 47.3389 69.7197C50.819 69.7197 53.4534 70.4351 54.5613 70.6171C54.6374 71.8871 54.8192 74.0376 55.1026 76.3152L53.9693 76.5438C53.1574 73.5466 52.0664 72.2639 49.9479 71.5442C49.1149 71.2521 47.7533 71.0913 46.7257 71.0913C41.4062 71.0913 37.9726 74.6853 37.9726 81.0226C37.9726 86.4285 40.8395 91.9403 47.6011 91.9403C48.7681 91.9403 49.8084 91.7159 50.5019 91.3645C51.2038 90.9666 51.6732 90.5391 51.6732 89.0828V86.42C51.6732 83.8547 51.4237 83.5964 47.9732 83.3467V82.2333H57.1111V83.3551V83.3551Z" fill="#00AA94"></path><path d="M83.8527 92.8038C83.3664 92.8038 80.0174 92.8462 79.5353 92.8038C77.0573 92.6303 75.6746 92.1731 74.1143 89.9802C72.8457 88.2361 71.5856 86.0729 70.4988 84.3372C69.8265 83.2747 69.3444 83.0376 67.6234 83.0376H66.2956V88.3292C66.2956 91.2841 66.672 91.4576 69.5051 91.7201V92.8038H60.0415V91.7201C62.9719 91.428 63.213 91.2883 63.213 88.3292V74.6599C63.213 71.6924 62.8366 71.5865 60.0415 71.3029V70.2192H69.0653C71.6194 70.2192 73.3616 70.524 74.6978 71.3876C76.1609 72.2977 77.1335 73.8767 77.1335 76.023C77.1335 79.0456 75.1756 80.9167 72.6342 82.0005C73.2516 83.0715 74.7443 85.349 75.793 86.9153C77.0996 88.778 77.8523 89.8786 78.6727 90.7465C79.6029 91.7328 83.0662 91.5169 83.8527 91.7243V92.8038ZM68.0124 81.7507C69.8518 81.7507 71.0189 81.4586 71.8858 80.7432C73.2347 79.7483 73.776 78.3937 73.776 76.531C73.776 72.8396 71.2896 71.5188 68.6171 71.5188C67.5684 71.5188 66.951 71.6627 66.7058 71.8786C66.4056 72.1242 66.2956 72.5052 66.2956 73.373V81.7464H68.0124V81.7507Z" fill="#00AA94"></path><path d="M96.9951 80.4214V84.714H95.9591C95.5489 82.1613 95.2994 81.865 93.0287 81.865H89.7008V88.5367C89.7008 90.9962 90.3309 91.2968 91.9758 91.3307H93.9505C95.7646 91.3307 96.124 91.0682 96.809 90.1538C97.3714 89.4595 97.4137 89.3241 97.8493 88.2192L98.8641 88.4986C98.6823 89.4638 98.4836 91.7836 98.1918 92.8038H83.8569V91.7201C86.7746 91.4915 86.9649 91.1698 86.9649 88.3335V74.7742C86.9649 71.6966 86.6351 71.5273 84.2713 71.2987V70.215H93.8617C96.475 70.215 97.7732 70.1811 98.3525 70.1472C98.3821 70.9685 98.3398 73.6185 98.2172 75.4981L97.2108 75.6717C96.9317 74.4779 96.6061 73.6778 96.272 72.9878C95.7942 71.9379 95.5489 71.6881 93.6799 71.6881H90.7453C89.7685 71.6881 89.7093 71.7855 89.7093 72.8057V80.3325H93.0583L96.9951 80.4214Z" fill="#00AA94"></path><path d="M115.343 80.4214V84.714H114.307C113.897 82.1613 113.647 81.865 111.377 81.865H108.049V88.5367C108.049 90.9962 108.679 91.2968 110.324 91.3307H112.298C114.112 91.3307 114.472 91.0682 115.157 90.1538C115.719 89.4595 115.762 89.3241 116.197 88.2192L117.212 88.4986C117.03 89.4638 116.831 91.7836 116.54 92.8038H102.205V91.7201C105.122 91.4915 105.313 91.1698 105.313 88.3335V74.7742C105.313 71.6966 104.983 71.5273 102.619 71.2987V70.215H112.21C114.823 70.215 116.121 70.1811 116.7 70.1472C116.73 70.9685 116.688 73.6185 116.565 75.4981L115.559 75.6717C115.279 74.4779 114.954 73.6778 114.62 72.9878C114.142 71.9379 113.897 71.6881 112.028 71.6881H109.093C108.116 71.6881 108.057 71.7855 108.057 72.8057V80.3325H111.406L115.343 80.4214Z" fill="#00AA94"></path><path d="M136.562 70.215V71.2987C139.467 71.4638 140.363 71.9294 140.49 73.4788C140.609 74.5033 140.689 76.0231 140.689 79.2912V87.5842L125.052 70.215H123.415V83.5245C123.415 86.6571 123.352 88.2488 123.225 89.3834C123.064 91.0428 122.168 91.5593 119.872 91.7201V92.8039H129.06V91.7201C126.396 91.5296 125.453 91.0216 125.352 89.2733C125.272 88.2573 125.166 86.6571 125.166 83.5499V75.0452L140.93 93.1002H142.469V79.2912C142.469 76.0231 142.541 74.5245 142.6 73.4196C142.731 71.8744 143.564 71.5146 145.894 71.2987V70.215H136.562Z" fill="#00AA94"></path><path d="M161.553 93.9215V93.477C163.595 93.1044 164.149 92.8081 163.705 91.4704C163.223 89.8744 162.297 87.1609 161.181 84.079H153.722C152.905 86.4582 152.199 88.3504 151.645 90.1327C150.829 92.6599 151.387 92.9182 154.204 93.477V93.9215H146.448V93.477C148.529 93.1044 149.159 92.8462 150.529 89.3537L158.246 69.3302L158.766 69.254C161.067 76.0146 163.477 82.8133 165.963 89.722C167.113 92.952 167.557 92.952 169.896 93.4727V93.9172H161.553V93.9215ZM157.548 73.5297C156.36 76.6877 155.248 79.9177 154.098 83.0038H160.851L157.548 73.5297Z" fill="#004478"></path><path d="M192.502 94.1077C192.206 94.1077 191.314 94.1077 191.056 94.0696C187.939 93.8834 187.195 93.5108 185.711 91.5085C184.484 89.7982 182.704 86.8264 181.406 84.5997C180.442 82.9657 180.032 82.7413 178.142 82.7413H176.581V89.7982C176.581 92.6599 176.877 93.0663 179.846 93.477V93.9215H170.716V93.477C173.609 93.0325 173.943 92.7361 173.943 89.7982V73.826C173.943 70.9643 173.685 70.6679 170.716 70.2234V69.7789H179.584C182.108 69.7789 184.112 70.1896 185.449 71.1548C186.785 72.048 187.711 73.7201 187.711 75.7225C187.711 78.7705 185.668 80.8871 182.962 82.0767C183.668 83.3382 185.372 86.1618 186.489 87.834C187.749 89.7643 188.713 91.1783 189.567 92.1054C190.493 93.1087 191.128 93.405 192.612 93.6675L192.502 94.1077ZM178.844 82.0005C180.7 82.0005 181.736 81.9243 182.776 81.1834C184.26 80.1421 184.742 78.6223 184.742 76.3913C184.742 72.3401 182.518 70.5198 179.364 70.5198C177.989 70.5198 177.321 70.6679 177.025 70.8542C176.691 71.0786 176.581 71.413 176.581 72.5983V81.9962H178.844V82.0005Z" fill="#004478"></path><path d="M216.009 88.3123C215.674 89.54 214.6 92.698 214.042 93.6251C213.078 93.8834 210.406 94.4803 207.881 94.4803C198.752 94.4803 194.523 88.3504 194.523 81.9243C194.523 74.1604 200.126 69.2582 208.511 69.2582C211.48 69.2582 213.742 69.889 214.93 70.0372C215.116 71.7474 215.264 73.7879 215.488 75.3119L214.896 75.4219C214.228 73.1571 213.67 71.5231 211.594 70.7399C210.406 70.2954 208.773 70.1091 207.399 70.1091C200.832 70.1091 197.716 75.3838 197.716 81.2554C197.716 88.6468 201.428 93.6251 208.033 93.6251C212.19 93.6251 213.86 91.246 215.417 88.1261L216.009 88.3123Z" fill="#004478"></path><path d="M19.2949 78.3979C19.2949 116.214 49.9183 146.872 87.6922 146.872C107.74 146.872 125.771 138.24 138.283 124.482C138.296 124.469 138.308 124.452 138.325 124.435C144.148 118.022 148.774 110.491 151.84 102.206C141.805 133.35 112.615 155.88 78.1695 155.88C35.427 155.88 0.777985 121.188 0.777985 78.3979C0.777985 35.6077 35.427 0.920044 78.1695 0.920044C112.615 0.920044 141.805 23.4497 151.84 54.5898C148.774 46.3053 144.148 38.7742 138.325 32.3608C138.3 32.3311 138.275 32.3057 138.249 32.2803C125.741 18.5433 107.723 9.92428 87.6922 9.92428C49.9183 9.92428 19.2949 40.5818 19.2949 78.3979Z" fill="#00AA94"></path><path d="M138.283 124.482C125.462 139.15 106.624 148.417 85.6245 148.417C47.0006 148.417 15.688 117.069 15.688 78.3979C15.688 39.731 47.0006 8.38336 85.6245 8.38336C106.607 8.38336 125.432 17.6331 138.249 32.2803C125.741 18.5433 107.723 9.92428 87.6922 9.92428C49.9183 9.92428 19.2949 40.5818 19.2949 78.3979C19.2949 116.214 49.9183 146.872 87.6922 146.872C107.74 146.872 125.771 138.24 138.283 124.482Z" fill="#004478"></path></svg>