<?xml version="1.0" encoding="utf-8"?>
<!-- Generator: Adobe Illustrator 23.0.0, SVG Export Plug-In . SVG Version: 6.00 Build 0)  -->
<svg version="1.1" id="Layer_1" xmlns="http://www.w3.org/2000/svg" xmlns:xlink="http://www.w3.org/1999/xlink" x="0px" y="0px"
	 viewBox="0 0 207.2 49.2" style="enable-background:new 0 0 207.2 49.2;" xml:space="preserve">
<style type="text/css">
	.st0{fill:#FE8D01;}
	.st1{fill:#FE8D02;}
	.st2{fill:#FE8E02;}
	.st3{fill:#FE8E03;}
	.st4{fill:#FE8E04;}
	.st5{fill:#FE8F05;}
	.st6{fill:#FE9D25;}
	.st7{fill:#0410FE;}
	.st8{fill:#19AC3F;}
</style>
<g>
	<path class="st0" d="M51.1,25.1L51.1,25.1L51.1,25.1C51.1,25.1,51.1,25.1,51.1,25.1z M51.1,25.1L51.1,25.1L51.1,25.1
		C51.1,25.1,51.1,25.1,51.1,25.1z"/>
	<path class="st0" d="M61.7,30.8c-0.6-3.7-0.5-7.4-0.5-11.1c0-2.4-0.3-4.7-0.6-7c-0.5-3.3-1.9-3.9-4.9-2.6c-3.2,1.4-5.1,3.9-6.4,7
		c-1.4,3.4-1.8,6.9-2.1,10.5c0.2,1.3-0.8,3,1.2,3.7c1.9,0.7,2.9-0.7,4-1.7c0.5-0.5,1-1.2,1.4-1.9c0.6-1,1.2-2.2,1.8-3.2
		c0.4-0.6,0.5-1.9,1.3-1.8c0.9,0.1,0.4,1.3,0.5,2c0.3,2.2,0.5,4.5,0.9,6.7c0.2,1.2,1,2.1,2.4,1.8C61.9,33,61.9,31.8,61.7,30.8z
		 M55.8,15.8c-0.5,3.3-1.6,6.3-4,8.7l-0.6,0.6l0,0V25c0-0.2,0-0.4,0.1-0.6l0.1-0.6c0.3-3.2,0.9-6.2,3.1-8.7c0.4-0.4,0.7-1.1,1.3-0.9
		C56.1,14.5,55.9,15.3,55.8,15.8z"/>
	<path class="st1" d="M113.2,25.8c-0.2,1.9-0.3,3.8-0.5,5.7c-0.1,0.8-0.5,1.2-1.3,1.1c-0.8-0.1-1.3-0.4-1.3-1.2
		c0.1-1.1,0.2-2.2,0.4-3.4c0.2-2.2,0-4.3-0.5-6.4c-0.2-0.8-0.5-1.6-1.3-1.8c-0.9-0.2-1.4,0.5-1.9,1.2c-2,2.6-2.4,5.7-2.8,8.9
		c-0.2,1.3,0.9,3.4-1.6,3.3c-2.1,0-2.2-1.9-2.3-3.5c-0.5-8.3-1-16.6-1.5-25C98.5,3.6,98.1,2,100,1.9c1.9-0.2,2.2,1.3,2.3,2.7
		c0.5,4.8,0,9.7,0.8,14.5c0.1,0.5-0.2,1.3,0.4,1.4c0.6,0.1,0.7-0.7,1.1-1.1c1.5-1.8,2.7-4.5,5.5-3.6c2.6,0.8,2.5,3.7,2.8,6
		C113,23.1,113.1,24.4,113.2,25.8z"/>
	<path class="st2" d="M64.2,27.7c0.3-4.2,0.3-8.3,0-12.5c-0.1-1.1-0.4-2.9,1.4-2.9c1.9,0,2.3,1.5,2.2,3.1c0,1.1-0.4,2.2,0.2,3.2
		c1-0.7,1.1-1.9,1.5-2.9c0.3-0.6,0.5-1.3,0.9-1.8c1.2-1.8,2.8-1.8,4,0c0.9,1.4,1.1,3.2,1.5,4.8c0.9,4,1.5,8,3.1,11.7
		c0.4,1,0.8,2-0.4,2.6c-1.1,0.5-2-0.2-2.6-1c-1.2-1.6-1.4-3.5-1.9-5.4c-0.5-1.7-0.7-3.5-1.2-5.3c-0.1-0.5-0.1-1.2-0.8-1.3
		c-0.7-0.1-0.8,0.6-1,1.2c-0.9,2.6-1.7,5.1-2.6,7.7c-0.3,0.9-0.5,1.7-0.8,2.6c-0.4,1-1,1.8-2.3,1.4c-1.1-0.3-1.7-1-1.6-2.3
		C64.1,29.7,64.1,28.7,64.2,27.7z"/>
	<path class="st3" d="M37.5,30.7c-0.1,1.3,0.1,2.3-1.1,2.5c-1.1,0.2-1.9-0.4-2.3-1.5c-0.7-1.8-0.5-3.8-0.7-5.7c-0.1-1-0.3-2-0.4-3
		c-0.1-1.1-0.2-2-1.8-1.4c-1,0.4-2.1,0.1-2.5-1c-0.4-1.3,0.6-1.9,1.6-2.1c2.3-0.6,2.6-2.2,2.3-4.1c-0.4-3.2-0.6-6.5-0.6-9.8
		c0-1.1-0.4-2.6,1.2-2.7c1.8-0.2,2.2,1.3,2.2,2.7c0.2,2.8,0.4,5.6,0.5,8.4c0.2,3.6,0.3,2.7,3.1,1.9c1.4-0.4,2.7-1.1,4.1-1.6
		c1.1-0.4,2.1-0.1,2.4,1.1c0.4,1.1-0.3,1.7-1.3,2c-1.8,0.7-3.6,1.4-5.4,2c-1.8,0.5-2.5,1.4-2.4,3.4C36.7,24.9,36.8,28,37.5,30.7z"/>
	<path class="st0" d="M127,25.1c0,2.6,0,5.2,0,7.8c0,0.9,0,2-1.1,2.1c-1.2,0.2-1.8-0.7-2.1-1.8c-0.1-0.5-0.2-1.1-0.2-1.7
		c-0.1-0.4-0.1-1.1-0.3-1.2c-0.5-0.1-0.7,0.4-0.9,0.8c-2.3,3.1-5.1,2.8-6.9-0.6c-0.8-1.4-0.9-3-1-4.6c-0.1-3,0.2-6.1,0.3-9.1
		c0-1.1,0.3-2,1.3-2.5c0.8-0.3,1.6-0.3,2.2,0.3c1,0.9,0.8,1.9,0.5,3.1c-1,3.4-1.7,6.7-0.7,10.3c0.2,0.8,0.3,1.6,1.3,1.7
		c0.8,0.1,1.2-0.6,1.6-1.1c2.1-2.9,2.2-6.3,2.5-9.6c0.1-1.1,0-2.2,0-3.4c0-0.8-0.2-2,1.2-2c1.1,0,1.6,0.7,1.7,1.7
		c0.1,0.9,0.3,1.8,0.3,2.7c0,2.4,0,4.7,0,7.1C126.7,25.1,126.8,25.1,127,25.1z"/>
	<path class="st4" d="M9.9,23.1c1.9-0.4,3.7-0.8,5.4-1.1c1.5-0.3,3.1-0.4,4,1c0.9,1.4-0.2,2.6-0.9,3.6c-1.4,1.9-2.9,3.7-4.3,5.6
		c-0.8,1.1-1.7,1.5-2.8,0.7c-1.1-0.9-0.4-1.7,0.2-2.6c1-1.5,3.4-2.7,2.7-4.5c-0.3-0.8-3,0.4-4.7,0.6c-0.4,0.1-0.9,0.1-1.3,0
		c-1.6-0.2-3.3-0.3-4-2c-0.7-1.6,0.7-2.7,1.7-3.7c1.8-1.9,3.9-3.4,6-4.8c1.3-0.8,2.7-1.1,4.2-1.2c1-0.1,2.2,0.3,2.2,1.5
		c0.1,1.3-1.1,1.2-1.9,1.3c-3.1,0.2-5,2.3-7,4.3C9,22,8.5,22.5,8.8,22.9C8.9,23.1,9.6,23,9.9,23.1z"/>
	<path class="st3" d="M87,23.1c2.1-0.4,3.9-0.9,5.8-1.2c1.2-0.2,2.6-0.2,3.4,1c0.8,1.2,0.2,2.4-0.6,3.4c-1.5,2.1-3.2,4.1-4.7,6.2
		c-0.7,1-1.6,1.2-2.6,0.5c-1.1-0.9-0.4-1.8,0.2-2.6c1.1-1.5,3.6-2.7,2.8-4.5c-0.4-0.9-3.2,0.5-5,0.6c-0.8,0-1.6,0-2.3-0.2
		c-3.4-0.8-3.9-2.3-1.7-4.9c1.9-2.1,4.1-3.9,6.5-5.4c1.3-0.9,2.9-1.2,4.5-1.2c0.9,0,1.8,0.3,1.9,1.5c0,1.1-0.8,1.2-1.6,1.3
		c-3.1,0.2-5.2,2-7.1,4.1c-0.3,0.4-0.9,0.8-0.5,1.4C86.1,23.1,86.8,23,87,23.1z"/>
	<path class="st5" d="M21.8,15.4c-0.4-1.8-0.3-2.8,1.1-3c1.3-0.1,2.2,0.6,2.4,1.9c0.3,2.1,0.5,4.2,0.6,6.4c0.1,3.4,0.3,6.7,1.1,10
		c0.3,1.2,0.4,2.4-1.2,2.6c-1.4,0.2-2.3-0.6-2.4-2.1C22.8,25.6,22.3,20.1,21.8,15.4z"/>
	<path class="st6" d="M24.6,1.9c-0.1,1-0.7,1.4-1.4,1.3c-0.9-0.1-1.7-0.6-1.9-1.6c-0.1-0.9,0.7-1,1.3-1C23.6,0.6,24.2,1.2,24.6,1.9z
		"/>
	<path class="st7" d="M151.3,35.2c0,1.2-1,2.2-2.2,2.2c-1.2,0-2.1-0.9-2.2-2l-3.1-0.3c-0.2,1.5-1.2,2.7-2.5,3.3l1.8,3.9
		c0.3-0.1,0.6-0.2,0.9-0.2c1.6,0,3,1.3,3,3c0,1.6-1.3,3-3,3s-3-1.3-3-3c0-1,0.5-1.9,1.3-2.5l-1.8-4c-0.4,0.1-0.8,0.2-1.2,0.2
		c-1.3,0-2.5-0.6-3.4-1.5l-4.4,2.6c0.1,0.2,0.1,0.4,0.1,0.5c0,0.8-0.7,1.5-1.5,1.5s-1.5-0.7-1.5-1.5s0.7-1.5,1.5-1.5
		c0.4,0,0.7,0.1,0.9,0.3l4.4-2.6c-0.4-0.7-0.7-1.5-0.7-2.4c0-1.3,0.5-2.4,1.4-3.2l-3.2-4.9c-0.4,0.2-0.9,0.3-1.4,0.3
		c-1.6,0-3-1.3-3-3c0-1.6,1.3-3,3-3c1.6,0,3,1.3,3,3c0,0.9-0.4,1.6-0.9,2.2l3.2,4.9c0.7-0.5,1.6-0.8,2.5-0.8c0.9,0,1.8,0.3,2.5,0.8
		l2.5-3c-0.4-0.4-0.6-0.9-0.6-1.5c0-1.2,1-2.2,2.2-2.2c1.2,0,2.2,1,2.2,2.2c0,1.2-1,2.2-2.2,2.2c-0.3,0-0.6-0.1-0.9-0.2l-2.5,3.1
		c0.8,0.8,1.3,1.9,1.4,3.2l3.1,0.3c0.3-0.9,1.1-1.6,2.1-1.6C150.3,33,151.3,34,151.3,35.2z"/>
	<g>
		<polygon class="st8" points="158.9,17.5 158.9,20.2 153.6,20.2 153.6,29.6 150.9,29.6 150.9,20.2 146.8,20.2 146.8,17.5 
			150.9,17.5 150.9,13.4 153.6,13.4 153.6,17.5 		"/>
		<rect x="189.9" y="12" class="st8" width="2.7" height="17.6"/>
		<path class="st8" d="M179.1,26.9h8v2.7h-9.1c-1.5,0-2.7-1.2-2.7-2.7v-6.7c0-1.5,1.2-2.7,2.7-2.7h9.1v2.7h-8
			c-0.6,0-1.1,0.5-1.1,1.1v4.6C178.1,26.4,178.5,26.9,179.1,26.9z"/>
		<path class="st8" d="M203.1,20.2v9.4h-2.7v-8.3c0-0.6-0.5-1.1-1.1-1.1h-5.4v-2.7h6.5C201.9,17.5,203.1,18.7,203.1,20.2z"/>
		<path class="st8" d="M170.6,21.9v-1.1c0-0.4-0.3-0.6-0.6-0.6h-5.4c-0.6,0-1.1,0.5-1.1,1.1v4.6c0,0.6,0.5,1.1,1.1,1.1h8v2.7h-9.1
			c-1.5,0-2.7-1.2-2.7-2.7v-6.7c0-1.5,1.2-2.7,2.7-2.7h7.1c1.5,0,2.7,1.2,2.7,2.7v2.4c0,1.4-1.1,2.6-2.5,2.7h-6.4v-2.7h5.7
			C170.3,22.5,170.6,22.3,170.6,21.9z"/>
		<path class="st8" d="M170.7,25.2c0,0-0.1,0-0.1,0c0,0-0.1,0-0.1,0H170.7z"/>
	</g>
</g>
</svg>
